<svg xmlns="http://www.w3.org/2000/svg" viewBox="0 0 24 24" role="img">
  <title>Google</title>
  <path fill="#4285F4" d="M23.52 12.27c0-.83-.07-1.44-.22-2.07H12v4.08h6.64c-.13 1.02-.86 2.56-2.47 3.58l-.02.14 3.59 2.55.25.02c2.32-1.96 3.66-4.85 3.66-8.3z"/>
  <path fill="#34A853" d="M12 23c3.31 0 6.09-1 8.12-2.72l-3.87-2.75c-1.04.66-2.42 1.13-4.25 1.13-3.25 0-6.01-1.96-6.99-4.67l-.14.01-3.73 2.64-.05.12C3.1 20.43 7.28 23 12 23z"/>
  <path fill="#FBBC05" d="M5.01 13.99A6.3 6.3 0 0 1 4.65 12c0-.69.13-1.36.34-1.99l-.01-.14-3.78-2.68-.12.05A10.55 10.55 0 0 0 0 12c0 1.72.45 3.34 1.24 4.76z"/>
  <path fill="#EA4335" d="M12 5.34c2.3 0 3.86.91 4.74 1.68l3.46-3.08C18.08 2.13 15.31 1 12 1 7.28 1 3.1 3.57 1.08 7.24l3.91 2.77C6.01 7.38 8.75 5.34 12 5.34z"/>
</svg>
